<?xml version="1.0" encoding="iso-8859-1"?>
<svg version="1.1" id="Capa_1" xmlns="http://www.w3.org/2000/svg" xmlns:xlink="http://www.w3.org/1999/xlink" x="0px" y="0px"
	 viewBox="0 0 512 512" style="enable-background:new 0 0 512 512;" xml:space="preserve">
<g>
	<g>
		<path d="M256,176c-44.096,0-80,35.904-80,80c0,44.128,35.904,80,80,80c44.128,0,80-35.872,80-80C336,211.904,300.128,176,256,176z
			 M256,304c-26.464,0-48-21.536-48-48s21.536-48,48-48s48,21.536,48,48S282.464,304,256,304z"/>
	</g>
</g>
<g>
	<g>
		<path d="M416,0c-35.84,0-69.472,20.672-85.664,52.608c-4,7.872-0.832,17.504,7.072,21.504c7.808,3.968,17.504,0.864,21.504-7.04
			C369.696,45.76,392.096,32,416,32c35.296,0,64,28.704,64,64c0,23.904-13.76,46.304-35.04,57.088
			c-7.872,4-11.072,13.632-7.072,21.504c2.816,5.568,8.416,8.768,14.272,8.768c2.432,0,4.896-0.544,7.2-1.728
			C491.328,165.44,512,131.84,512,96C512,43.072,468.928,0,416,0z"/>
	</g>
</g>
<g>
	<g>
		<path d="M351.936,45.632c-7.84-4-17.536-0.992-21.536,6.912c-22.528,43.84-53.6,88.48-89.856,129.12
			c-5.888,6.592-5.312,16.704,1.28,22.592c3.072,2.72,6.848,4.064,10.656,4.064c4.384,0,8.768-1.824,11.968-5.344
			c38.016-42.624,70.688-89.6,94.4-135.808C362.912,59.328,359.776,49.664,351.936,45.632z"/>
	</g>
</g>
<g>
	<g>
		<path d="M204.256,241.856c-5.888-6.592-15.968-7.168-22.592-1.28c-40.64,36.256-85.28,67.328-129.12,89.856
			c-7.84,4.032-10.944,13.664-6.912,21.536c2.848,5.504,8.416,8.672,14.24,8.672c2.432,0,4.928-0.576,7.296-1.76
			c46.208-23.712,93.152-56.384,135.808-94.4C209.568,258.56,210.144,248.448,204.256,241.856z"/>
	</g>
</g>
<g>
	<g>
		<path d="M466.368,160.032c-4-7.84-13.664-10.912-21.536-6.912c-46.24,23.776-93.216,56.448-135.808,94.464
			c-6.592,5.888-7.168,16-1.28,22.592c3.168,3.52,7.52,5.344,11.936,5.344c3.808,0,7.616-1.344,10.656-4.064
			c40.576-36.256,85.248-67.328,129.12-89.888C467.328,177.536,470.432,167.904,466.368,160.032z"/>
	</g>
</g>
<g>
	<g>
		<path d="M270.176,307.744c-6.56-5.856-16.672-5.312-22.592,1.28c-38.016,42.592-70.688,89.568-94.464,135.808
			c-4.032,7.84-0.96,17.504,6.912,21.536c2.336,1.216,4.832,1.792,7.296,1.792c5.824,0,11.424-3.168,14.24-8.704
			c22.56-43.872,53.632-88.512,89.888-129.12C277.344,323.744,276.768,313.632,270.176,307.744z"/>
	</g>
</g>
<g>
	<g>
		<path d="M174.592,437.856c-7.872-3.904-17.504-0.768-21.504,7.072C142.304,466.24,119.904,480,96,480c-35.296,0-64-28.704-64-64
			c0-23.904,13.76-46.304,35.072-57.088c7.872-4,11.04-13.632,7.04-21.504c-4-7.872-13.568-11.04-21.504-7.072
			C20.672,346.528,0,380.16,0,416c0,52.928,43.072,96,96,96c35.84,0,69.44-20.672,85.664-52.64
			C185.632,451.488,182.496,441.856,174.592,437.856z"/>
	</g>
</g>
<g>
	<g>
		<path d="M410.56,323.68c-6.368,0-11.84,3.776-14.432,9.216c-15.456,28.544-39.744,51.904-68.416,65.824
			c-7.936,3.872-11.232,13.44-7.392,21.408c2.784,5.664,8.448,8.992,14.4,8.992c2.336,0,4.736-0.48,6.976-1.6
			c34.912-16.96,64.352-45.408,82.944-80.128c1.248-2.336,1.92-5.248,1.92-7.872C426.56,330.688,419.392,323.68,410.56,323.68z"/>
	</g>
</g>
<g>
	<g>
		<path d="M191.648,91.808c-3.904-7.936-13.472-11.2-21.408-7.296c-44.992,22.144-79.872,62.048-95.808,109.44
			c-2.816,8.384,1.696,17.44,10.08,20.256c1.696,0.576,3.392,0.832,5.088,0.832c6.688,0,12.928-4.224,15.168-10.912
			c13.216-39.392,42.24-72.512,79.584-90.912C192.288,109.312,195.552,99.744,191.648,91.808z"/>
	</g>
</g>
<g>
	<g>
		<path d="M476.8,351.2c-7.808-4.064-17.504-0.992-21.536,6.912c-22.016,42.816-56.288,76.704-99.168,97.952
			c-7.904,3.936-11.136,13.536-7.232,21.472c2.816,5.6,8.448,8.864,14.336,8.864c2.4,0,4.8-0.512,7.168-1.664
			c48.992-24.352,88.224-63.072,113.344-112C487.776,364.864,484.64,355.232,476.8,351.2z"/>
	</g>
</g>
<g>
	<g>
		<path d="M163.136,34.528c-3.904-7.936-13.472-11.2-21.44-7.264C83.776,55.904,37.952,107.2,16,168
			c-3.008,8.32,1.28,17.472,9.6,20.48c1.792,0.672,3.616,0.96,5.44,0.96c6.56,0,12.704-4.064,15.04-10.56
			c19.2-53.12,59.232-97.92,109.792-122.912C163.808,52.032,167.072,42.464,163.136,34.528z"/>
	</g>
</g>
</svg>
