<svg id="Gradient" height="512" viewBox="0 0 512 512" width="512" xmlns="http://www.w3.org/2000/svg" xmlns:xlink="http://www.w3.org/1999/xlink"><linearGradient id="linear-gradient" gradientUnits="userSpaceOnUse" x1="256" x2="256" y1="496" y2="16"><stop offset="0" stop-color="#12c2e9"/><stop offset=".5" stop-color="#c471ed"/><stop offset="1" stop-color="#f64f59"/></linearGradient><path d="m48 336a32 32 0 1 1 32-32 32.036 32.036 0 0 1 -32 32zm0-48a16 16 0 1 0 16 16 16.019 16.019 0 0 0 -16-16zm144 192a32 32 0 1 1 32-32 32.036 32.036 0 0 1 -32 32zm0-48a16 16 0 1 0 16 16 16.019 16.019 0 0 0 -16-16zm-91-5a32 32 0 1 1 32-32 32.036 32.036 0 0 1 -32 32zm0-48a16 16 0 1 0 16 16 16.019 16.019 0 0 0 -16-16zm-53-155a32 32 0 1 1 32-32 32.036 32.036 0 0 1 -32 32zm0-48a16 16 0 1 0 16 16 16.019 16.019 0 0 0 -16-16zm144-96a32 32 0 1 1 32-32 32.036 32.036 0 0 1 -32 32zm0-48a16 16 0 1 0 16 16 16.019 16.019 0 0 0 -16-16zm-91 101a32 32 0 1 1 32-32 32.036 32.036 0 0 1 -32 32zm0-48a16 16 0 1 0 16 16 16.019 16.019 0 0 0 -16-16zm355.03 411a32.435 32.435 0 0 1 -3.56-.2l-144-16a32 32 0 0 1 -27.3-40.369l40-144a31.995 31.995 0 0 1 39.4-22.267 32 32 0 0 1 22.267 39.4l-21.028 75.7a177.586 177.586 0 0 0 33.748-33.2 173.624 173.624 0 0 0 36.443-107.064c0-77.945-52.965-147.536-128.8-169.233a32 32 0 0 1 17.6-61.532 244.625 244.625 0 0 1 125.118 84.88 238.484 238.484 0 0 1 -30.732 325.15l44.345 4.928a32 32 0 0 1 -3.501 63.807zm-104.056-208.008a16.02 16.02 0 0 0 -15.388 11.725l-40 144a16 16 0 0 0 13.65 20.183l144 16a16.391 16.391 0 0 0 1.8.1 16 16 0 0 0 1.737-31.9l-63.31-7.035a8 8 0 0 1 -3.914-14.352 224.178 224.178 0 0 0 43-42.3 222.509 222.509 0 0 0 -.269-272.5 228.49 228.49 0 0 0 -116.88-79.293 16 16 0 1 0 -8.8 30.765c82.666 23.652 140.4 99.568 140.4 184.615a189.494 189.494 0 0 1 -39.785 116.852 192.113 192.113 0 0 1 -55.833 48.834 8 8 0 0 1 -11.727-9.058l26.762-96.346a16 16 0 0 0 -11.133-19.7 16.051 16.051 0 0 0 -4.31-.59z" fill="url(#linear-gradient)"/></svg>